<svg id="AdobeXD" xmlns="http://www.w3.org/2000/svg" width="67.999" height="67.999" viewBox="0 0 67.999 67.999">
  <circle id="Elipse_12" data-name="Elipse 12" cx="34" cy="34" r="34" fill="#592b49"/>
  <path id="Caminho_141" data-name="Caminho 141" d="M11.756,47.451,21.1,33.179,12.633,20.1h6.455l5.485,8.787L29.946,20.1h6.4L27.838,33.384l9.347,14.067h-6.66l-6.063-9.459-6.082,9.459Z" fill="#da2286"/>
  <path id="Caminho_142" data-name="Caminho 142" d="M56.244,47.451H51.375v-2.91a7.865,7.865,0,0,1-2.864,2.528,7.35,7.35,0,0,1-3.33.83,7.546,7.546,0,0,1-5.849-2.752Q36.9,42.4,36.9,37.47q0-5.037,2.369-7.658a7.725,7.725,0,0,1,5.989-2.621A7.421,7.421,0,0,1,51,29.951V20.1h5.242V47.451ZM42.252,37.116a9.069,9.069,0,0,0,.877,4.589,3.961,3.961,0,0,0,3.545,2.052,3.859,3.859,0,0,0,3.078-1.539,7.1,7.1,0,0,0,1.269-4.6q0-3.414-1.231-4.916a3.9,3.9,0,0,0-3.153-1.5,3.939,3.939,0,0,0-3.125,1.483A6.7,6.7,0,0,0,42.252,37.116Z" fill="#da2286"/>
</svg>
