<svg xmlns="http://www.w3.org/2000/svg" width="68" height="68" viewBox="0 0 68 68">
  <g id="AdobeAI" transform="translate(13.751 -0.678)">
    <circle id="Elipse_11" data-name="Elipse 11" cx="34" cy="34" r="34" transform="translate(-13.751 0.678)" fill="#1f0e03"/>
    <path id="Caminho_168" data-name="Caminho 168" d="M1.509,16.445h33.2v32.3H1.509ZM0,50.253H36.223V14.935H0Zm23.726-22.73c0-.121.045-.181.181-.181h2.37c.121,0,.181.045.181.181V39.431c0,.121-.03.181-.181.181H23.937c-.151,0-.2-.075-.2-.2V27.523ZM23.56,24.1a1.539,1.539,0,0,1,3.079,0,1.442,1.442,0,0,1-1.57,1.539A1.419,1.419,0,0,1,23.56,24.1Zm-6.792,8.392c-.423-1.675-1.419-5.328-1.8-7.094h-.03c-.317,1.766-1.117,4.754-1.751,7.094Zm-4.2,2.445L11.38,39.461c-.03.121-.075.151-.226.151H8.935c-.151,0-.181-.045-.151-.226l4.286-15a4.889,4.889,0,0,0,.151-1.253c0-.106.045-.151.121-.151h3.169c.106,0,.151.03.181.151l4.8,16.285c.03.121,0,.2-.121.2H18.866c-.121,0-.2-.03-.226-.136L17.4,34.933h-4.83Z" transform="translate(2.137 2.084)" fill="#ff7f18"/>
  </g>
</svg>
