<svg id="bootstrap-4" xmlns="http://www.w3.org/2000/svg" width="68" height="68" viewBox="0 0 68 68">
  <circle id="Elipse_16" data-name="Elipse 16" cx="34" cy="34" r="34" fill="#563d7c"/>
  <path id="Caminho_172" data-name="Caminho 172" d="M28.2,30.079v-9.63h8.476a13.185,13.185,0,0,1,2.335.2,5.829,5.829,0,0,1,1.99.721,3.844,3.844,0,0,1,1.384,1.442,4.787,4.787,0,0,1,.519,2.364,4.356,4.356,0,0,1-1.557,3.748,6.507,6.507,0,0,1-3.979,1.153H28.2ZM19.145,13.414V54.586H39.1a21.05,21.05,0,0,0,5.392-.692,14.42,14.42,0,0,0,4.671-2.133,10.509,10.509,0,0,0,3.258-3.719,11.329,11.329,0,0,0,1.211-5.392,11.408,11.408,0,0,0-1.874-6.6,9.9,9.9,0,0,0-5.68-3.835,10.262,10.262,0,0,0,4.181-3.4,9.019,9.019,0,0,0,1.413-5.19,11.044,11.044,0,0,0-.951-4.844,7.913,7.913,0,0,0-2.681-3.143,11.573,11.573,0,0,0-4.152-1.7,25.632,25.632,0,0,0-5.363-.519H19.145ZM28.2,47.551v-11.3h9.86A7.628,7.628,0,0,1,42.787,37.6q1.787,1.355,1.788,4.527a5.659,5.659,0,0,1-.548,2.653,4.351,4.351,0,0,1-1.471,1.643,6.227,6.227,0,0,1-2.133.865,12.105,12.105,0,0,1-2.537.259H28.2Z" fill="#fff"/>
</svg>
