<svg id="css3" xmlns="http://www.w3.org/2000/svg" xmlns:xlink="http://www.w3.org/1999/xlink" width="68" height="71" viewBox="0 0 68 71">
  <defs>
    <linearGradient id="linear-gradient" x1="-10.229" y1="13.597" x2="-10.229" y2="14.597" gradientUnits="objectBoundingBox">
      <stop offset="0.387" stop-color="#d1d3d4" stop-opacity="0"/>
      <stop offset="1" stop-color="#d1d3d4"/>
    </linearGradient>
    <linearGradient id="linear-gradient-2" x1="-9.516" y1="14.078" x2="-9.516" y2="15.078" xlink:href="#linear-gradient"/>
    <linearGradient id="linear-gradient-3" x1="-5.39" y1="6.703" x2="-4.39" y2="6.703" gradientUnits="objectBoundingBox">
      <stop offset="0" stop-color="#e8e7e5"/>
      <stop offset="1" stop-color="#fff"/>
    </linearGradient>
    <linearGradient id="linear-gradient-4" x1="-4.964" y1="30.297" x2="-3.964" y2="30.297" xlink:href="#linear-gradient-3"/>
  </defs>
  <circle id="Elipse_11" data-name="Elipse 11" cx="34" cy="34" r="34" transform="translate(0 3)" fill="#3c9cd7"/>
  <path id="Caminho_156" data-name="Caminho 156" d="M0,0H68V68H0Z" fill="none"/>
  <path id="Caminho_157" data-name="Caminho 157" d="M50.107,57.526,33.4,62l-16.709-4.47-3.856-41.5h41.13Z" fill="#2062af"/>
  <path id="Caminho_158" data-name="Caminho 158" d="M34,19.508V59.957l.039.011L47.956,56.22l3.212-36.712H34Z" fill="#3c9cd7"/>
  <path id="Caminho_160" data-name="Caminho 160" d="M33.984,30.258,21.676,35.385l.408,5.075,11.9-5.088,12.659-5.412.525-5.192L33.984,30.258Z" fill="#fff"/>
  <path id="Caminho_161" data-name="Caminho 161" d="M21.675,35.385l.408,5.075,11.9-5.088V30.258Z" fill="url(#linear-gradient)"/>
  <path id="Caminho_162" data-name="Caminho 162" d="M47.168,24.767,33.984,30.258v5.113l12.659-5.412Z" fill="url(#linear-gradient-2)"/>
  <path id="Caminho_163" data-name="Caminho 163" d="M21.694,35.385,22.1,40.46l18.26.058-.408,6.767-6.009,1.692L28.17,47.518l-.35-4.2H22.453l.7,8.109L34,54.635,44.8,51.485l1.4-16.1Z" fill="url(#linear-gradient-3)"/>
  <path id="Caminho_164" data-name="Caminho 164" d="M33.984,35.385H21.676l.408,5.075,11.9.038V35.385Zm0,13.576-.058.016-5.775-1.458-.35-4.2H22.434l.7,8.109,10.85,3.208Z" opacity="0.05"/>
  <path id="Caminho_165" data-name="Caminho 165" d="M20.567,24.767h26.6l-.525,5.192H21.209l-.642-5.192Z" fill="url(#linear-gradient-4)"/>
  <path id="Caminho_166" data-name="Caminho 166" d="M33.984,24.767H20.567l.642,5.192H33.984V24.767Z" opacity="0.05"/>
</svg>
