<svg xmlns="http://www.w3.org/2000/svg" width="378.543" height="416.467" viewBox="0 0 378.543 416.467">
  <g id="Illustração-estudante" transform="translate(0)">
    <path id="Caminho_116" data-name="Caminho 116" d="M651.425,726.448c0,15.679-84.739,28.391-189.272,28.391s-189.272-12.712-189.272-28.391c0-11.1,42.476-20.716,104.38-25.381,25.527-1.929,54.37-3.01,84.891-3.01,12.547,0,24.807.183,36.664.531C585.8,701.153,651.425,712.649,651.425,726.448Z" transform="translate(-272.882 -338.371)" fill="#21413e"/>
    <ellipse id="Elipse_6" data-name="Elipse 6" cx="72.656" cy="8.853" rx="72.656" ry="8.853" transform="translate(92.194 376.171)" opacity="0.1"/>
    <ellipse id="Elipse_7" data-name="Elipse 7" cx="68.687" cy="73.266" rx="68.687" ry="73.266" transform="translate(95.857 244.902)" fill="#627f7d"/>
    <rect id="Retângulo_30" data-name="Retângulo 30" width="42.739" height="39.075" transform="translate(143.48 361.518)" fill="#154f6e"/>
    <path id="Caminho_117" data-name="Caminho 117" d="M394.942,607.614,392.5,621.046l15.874,2.442,10.379-6.105-.611-9.769Z" transform="translate(-152.857 -236.633)" fill="#575a89"/>
    <path id="Caminho_118" data-name="Caminho 118" d="M535.279,303.331s-1.221,14.043-4.274,14.653,6.716,25.033,6.716,25.033h14.653l11.6-3.053-5.495-13.432s-7.327-9.769-1.832-17.706S535.279,303.331,535.279,303.331Z" transform="translate(-373.177 -184.509)" fill="#eedf92"/>
    <path id="Caminho_119" data-name="Caminho 119" d="M535.279,303.331s-1.221,14.043-4.274,14.653,6.716,25.033,6.716,25.033h14.653l11.6-3.053-5.495-13.432s-7.327-9.769-1.832-17.706S535.279,303.331,535.279,303.331Z" transform="translate(-373.177 -184.509)" fill="#fff4bb" opacity="0.1"/>
    <path id="Caminho_120" data-name="Caminho 120" d="M483.244,478s-15.874,30.528-3.053,36.633,15.874,5.495,15.874,7.327-2.442,1.221-1.221,4.274-2.442,15.264,1.221,22.59,2.442,12.822,2.442,12.822a9.865,9.865,0,0,0,1.221,3.053c1.221,2.442,1.832,4.274,1.221,5.495s-4.274,9.158-.611,10.99,22.59,3.053,24.422,0-1.832-4.884,0-6.716,3.053-2.442,1.832-3.663-2.442-16.485-2.442-16.485,3.053-17.706,1.832-20.148-3.053-4.884-1.832-6.716,2.442-1.221,3.053-3.663,1.832-7.937,1.832-7.937l6.716-.611,15.874,3.053s17.706,19.538,37.244,25.643c0,0,5.495,5.5,7.327,5.5s1.832,0,1.221,1.221-2.442,1.221-1.221,2.442,3.053-.611,1.832,1.221-2.442,1.832-1.221,3.053-.611,7.937-.611,8.548-5.495,58-3.663,59.224,27.475,4.884,29.307,0-1.221-10.99-1.221-10.99,9.158-73.266,6.716-78.151-10.99-26.864-56.781-40.907c0,0-12.822-2.442-12.822-4.274s-1.221-13.432-3.663-14.043-16.485-1.221-16.485-1.221l-17.706,5.495-24.422-4.274Z" transform="translate(-351.669 -251.72)" fill="#2f2e41"/>
    <path id="Caminho_121" data-name="Caminho 121" d="M520.845,646.389l-3.053,10.99s-2.442,17.706.611,21.98a19.2,19.2,0,0,0,14.619,8.189,9.812,9.812,0,0,0,10.244-6.788,3.059,3.059,0,0,0,.169-.79c0-1.221-1.832-15.874-1.832-15.874l-3.053-15.264-.611-4.274Z" transform="translate(-367.901 -317.536)" fill="#2f2e41"/>
    <path id="Caminho_122" data-name="Caminho 122" d="M666.249,729.953s-3.053-3.053-3.663,0-3.053,15.874,1.221,16.485,45.181,6.716,49.455,4.274,12.211-6.106,7.327-7.937-18.927-7.327-18.927-7.327-7.937-10.379-9.158-10.99-7.937.611-10.99,3.053S666.249,729.953,666.249,729.953Z" transform="translate(-424.164 -348.592)" fill="#2f2e41"/>
    <circle id="Elipse_8" data-name="Elipse 8" cx="18.927" cy="18.927" r="18.927" transform="translate(157.828 93.79)" fill="#fff4bb"/>
    <path id="Caminho_123" data-name="Caminho 123" d="M529.265,348.021l-7.327-7.937-8.121-15.874s-5.921-1.832-7.142,1.221-23.2,12.822-23.2,12.822,5.495,51.286,3.053,56.171-6.716,24.422-3.053,26.254,20.759,0,26.254,2.442,21.369,2.442,25.643-.611,5.495-5.495,9.769-3.663c3.638,1.559,12.144-51.751,14.593-67.638a7.231,7.231,0,0,0-3-7.027c-5.478-3.843-15.345-10.465-17.092-9.591C537.2,335.81,529.265,348.021,529.265,348.021Z" transform="translate(-354.341 -192.566)" fill="#575a89"/>
    <path id="Caminho_124" data-name="Caminho 124" d="M596.338,359.557h0a7.241,7.241,0,0,1,5.441,6.225l4.939,44.451s-12.211,26.254-18.317,8.548S596.338,359.557,596.338,359.557Z" transform="translate(-395.16 -206.544)" fill="#575a89"/>
    <path id="Caminho_125" data-name="Caminho 125" d="M594.124,447.22l13.432-3.663s2.442,17.1,4.884,17.1-8.548,9.769-14.043,8.548-13.432-5.5-14.043-8.548,5.495-15.874,5.495-15.874Z" transform="translate(-394.167 -239.257)" fill="#575a89"/>
    <path id="Caminho_126" data-name="Caminho 126" d="M531.09,281.016c1.287-2.838,1.064-6.148,2.128-9.077a10.823,10.823,0,0,1,16.456-5.117c1.369.976,2.741,2.347,4.412,2.161,1.8-.2,3.4-2.208,5.058-1.472,1.833.815,1.338,4.1,3.2,4.86a2.348,2.348,0,0,0,2.7-1.109,6.853,6.853,0,0,0,.785-3.038c.256-2.6.488-5.36-.641-7.72a18.49,18.49,0,0,1-1.238-2.5,8.543,8.543,0,0,1-.235-2.463c-.01-3.061-.234-6.253-1.774-8.9a12.9,12.9,0,0,0-8.165-5.631,31.151,31.151,0,0,0-10.134-.407c-5.595.474-11.429,1.489-15.837,4.967a6.2,6.2,0,0,0-1.522,1.6,8.257,8.257,0,0,0-.811,2.345,48.508,48.508,0,0,1-4.254,11.159,24.211,24.211,0,0,0-2.2,4.741,6.137,6.137,0,0,0,.543,5.044c.8,1.177,2.07,1.8,3.071,2.766s1.455,2.787,2.554,3.509c.959.63,2.107.185,3.085.853C529.521,278.449,529.611,280.328,531.09,281.016Z" transform="translate(-368.622 -160.134)" fill="#2f2e41"/>
    <path id="Caminho_127" data-name="Caminho 127" d="M564.382,376.22l1.832-3.663s26.864,7.937,32.359,15.264c0,0,13.432-8.548,20.759-7.327l7.327,1.221-22.591,20.148-28.7-2.442Z" transform="translate(-386.405 -211.607)" fill="#f2f2f2"/>
    <path id="Caminho_128" data-name="Caminho 128" d="M546.415,372.557l-25.033,34.8L557.4,425.065s3.368,1.832,5.958,0l23.959-10.99,22.591-32.359-22.591,11.6s-2.442-4.884-7.327-2.442Z" transform="translate(-369.659 -211.607)" fill="#21413e"/>
    <path id="Caminho_129" data-name="Caminho 129" d="M623.435,451.436l4.884-12.822s10.99-14.043,4.884-20.759-12.822,19.538-12.822,19.538Z" transform="translate(-408.214 -228.82)" fill="#f0e196"/>
    <path id="Caminho_130" data-name="Caminho 130" d="M533.079,453.318l10.658-8.641s16.552-6.634,14.64-15.507-20.893,10.468-20.893,10.468Z" transform="translate(-374.214 -232.748)" fill="#f0e196"/>
    <path id="Caminho_131" data-name="Caminho 131" d="M480.572,366.491h-.611s-9.464-11.3-11.3,3.969-7.937,65.94,7.937,67.771a38.6,38.6,0,0,0,27.17-7.632s11.6-17.706,7.327-17.706c-2.068,0-7.692-.929-12.822-.611-5.472.339-10.389,1.881-10.074.305C488.815,409.535,497.668,370.765,480.572,366.491Z" transform="translate(-348.082 -207.678)" opacity="0.1"/>
    <path id="Caminho_132" data-name="Caminho 132" d="M477.709,348.778l-2.442-1.221s-9.769,1.832-11.6,17.1-7.937,65.94,7.937,67.772,37.244-2.442,37.244-2.442,4.274-23.2,0-23.2-26.254,3.053-25.643,0S494.8,353.052,477.709,348.778Z" transform="translate(-346.135 -201.87)" fill="#575a89"/>
    <path id="Caminho_133" data-name="Caminho 133" d="M338,346.532l6.733-10.319,4.257,17.035L338,358.133Z" transform="translate(-131.633 -130.937)" fill="#575a89"/>
    <circle id="Elipse_9" data-name="Elipse 9" cx="16.485" cy="16.485" r="16.485" transform="translate(51.575 35.481)" fill="rgba(161,28,33,0.74)"/>
    <rect id="Retângulo_31" data-name="Retângulo 31" width="39.075" height="39.075" transform="translate(48.523 174.688)" fill="rgba(237,202,141,0.65)"/>
    <path id="Caminho_134" data-name="Caminho 134" d="M359.383,0l9.89,17.13,9.89,17.13H339.6l9.89-17.13Z" transform="translate(-132.257)" fill="rgba(125,204,198,0.73)"/>
  </g>
</svg>
