<svg xmlns="http://www.w3.org/2000/svg" width="68" height="68" viewBox="0 0 68 68">
  <g id="icons8-javascript" transform="translate(-0.882 4.067)">
    <circle id="Elipse_15" data-name="Elipse 15" cx="34" cy="34" r="34" transform="translate(0.882 -4.067)" fill="#f2bf22"/>
    <path id="Caminho_146" data-name="Caminho 146" d="M14.316,8.947H55.448L50.609,50.079,34.882,54.918,17.945,50.079Z" fill="#e7a42b"/>
    <path id="Caminho_147" data-name="Caminho 147" d="M61.226,14.316,57.137,49.048l-12.4,3.811V14.316Z" transform="translate(-9.855 -1.739)" fill="#f2bf22"/>
    <path id="Caminho_148" data-name="Caminho 148" d="M39.4,32.362l1.21,2.42L39.4,37.2H28.256l1.028-15.727H39.4l1.21,2.42-1.21,2.42h-4.8l-.4,6.049Z" transform="translate(-4.516 -4.058)" fill="#faf9f8"/>
    <path id="Caminho_149" data-name="Caminho 149" d="M39.427,55.634l.121-.036,1.21,2.976-1.21,2.081-.073.024L29.4,57.8l-.677-7.694h4.863l.339,3.956Z" transform="translate(-4.667 -13.333)" fill="#ebebeb"/>
    <path id="Caminho_150" data-name="Caminho 150" d="M55.709,37.579l-1.9,16.235L44.737,56.6V51.54l4.633-1.428.9-7.694H44.737V37.579Z" transform="translate(-9.855 -9.275)" fill="#fff"/>
    <path id="Caminho_151" data-name="Caminho 151" d="M56.738,28.732H51.911l-.315-2.42H44.737V21.474H55.782L55.988,23Z" transform="translate(-9.855 -4.058)" fill="#fff"/>
  </g>
</svg>
