<svg xmlns="http://www.w3.org/2000/svg" xmlns:xlink="http://www.w3.org/1999/xlink" width="68" height="68" viewBox="0 0 68 68">
  <defs>
    <radialGradient id="radial-gradient" cx="0.329" cy="0.224" r="0.781" gradientTransform="translate(-0.01 0.01) scale(0.973 0.968)" gradientUnits="objectBoundingBox">
      <stop offset="0" stop-color="#34364e" stop-opacity="0.98"/>
      <stop offset="1" stop-color="#0c0824"/>
    </radialGradient>
  </defs>
  <g id="photoshop" transform="translate(14.617 11.254)">
    <circle id="Elipse_11" data-name="Elipse 11" cx="34" cy="34" r="34" transform="translate(-14.617 -11.254)" fill="#120f2b"/>
    <path id="Caminho_169" data-name="Caminho 169" d="M.853,5.352h36.22v35.32H.853Z" transform="translate(0.734 0.734)" fill="url(#radial-gradient)"/>
    <path id="Caminho_170" data-name="Caminho 170" d="M1.588,6.087H36.519V40.065H1.588ZM0,41.653H38.107V4.5H0ZM25.69,19.742c-1.254,0-1.683.635-1.683,1.159,0,.572.286.969,1.969,1.842,2.493,1.207,3.271,2.366,3.271,4.065,0,2.54-1.937,3.906-4.557,3.906a6.908,6.908,0,0,1-3.255-.683c-.111-.048-.127-.127-.127-.254V27.443c0-.159.079-.206.191-.127a5.893,5.893,0,0,0,3.191.937c1.254,0,1.778-.524,1.778-1.239,0-.572-.365-1.08-1.969-1.905-2.255-1.08-3.191-2.175-3.191-4,0-2.048,1.6-3.747,4.382-3.747a7.3,7.3,0,0,1,2.842.445.352.352,0,0,1,.159.318V20.3c0,.127-.079.206-.238.159a5.364,5.364,0,0,0-2.763-.714ZM12.035,21.631c.365.032.651.032,1.286.032,1.858,0,3.6-.651,3.6-3.176,0-2.016-1.254-3.033-3.366-3.033-.635,0-1.239.032-1.524.048ZM9.209,13.2c0-.111.222-.191.349-.191,1.016-.048,2.525-.079,4.1-.079,4.4,0,6.113,2.413,6.113,5.494,0,4.033-2.922,5.764-6.51,5.764-.6,0-.81-.032-1.239-.032v6.1c0,.127-.048.191-.191.191H9.4c-.127,0-.191-.048-.191-.191V13.2Z" transform="translate(0 0)" fill="#31c5f0"/>
  </g>
</svg>
