<svg xmlns="http://www.w3.org/2000/svg" width="68" height="68" viewBox="0 0 68 68">
  <g id="icons8-nativo-de-reagir" transform="translate(7.238 6.281)">
    <circle id="Elipse_14" data-name="Elipse 14" cx="34" cy="34" r="34" transform="translate(-7.238 -6.281)" fill="#3b5998"/>
    <path id="Caminho_143" data-name="Caminho 143" d="M26.762,42.682c-14.181,0-25.284-4.837-25.284-10.993S12.581,20.7,26.762,20.7s25.284,4.837,25.284,10.993S40.944,42.682,26.762,42.682Zm0-19.788c-13.851,0-23.086,4.507-23.086,8.794s9.234,8.795,23.086,8.795,23.086-4.507,23.086-8.795S40.614,22.894,26.762,22.894Z" transform="translate(0 -3.997)" fill="#80deea"/>
    <path id="Caminho_144" data-name="Caminho 144" d="M20.209,50.339a5.076,5.076,0,0,1-2.858-.77c-5.387-3.078-3.958-15.061,3.078-27.373h0A47.921,47.921,0,0,1,31.751,8.565c4.287-3.3,8.135-4.287,10.773-2.748C45.273,7.356,46.262,11.2,45.6,16.59A47.257,47.257,0,0,1,39.447,33.3,47.921,47.921,0,0,1,28.124,46.931C25.266,49.129,22.517,50.339,20.209,50.339ZM39.776,7.246c-1.759,0-4.067.989-6.6,2.968A47.269,47.269,0,0,0,22.407,23.3h0c-6.926,11.983-7.585,22.316-3.958,24.4,1.869,1.1,4.947.11,8.355-2.528A47.269,47.269,0,0,0,37.578,32.09a45.6,45.6,0,0,0,5.936-15.83c.55-4.4-.11-7.475-1.979-8.575A4.609,4.609,0,0,0,39.776,7.246Z" transform="translate(-3.23 -0.002)" fill="#80deea"/>
    <path id="Caminho_145" data-name="Caminho 145" d="M39.889,50.337c-5.5,0-13.412-6.706-19.348-17.149C13.4,20.876,11.966,8.893,17.353,5.815h0c5.387-3.078,15.061,4.067,22.206,16.38A47.257,47.257,0,0,1,45.715,38.9c.77,5.387-.33,9.124-3.078,10.773A5.96,5.96,0,0,1,39.889,50.337ZM18.452,7.684c-3.628,2.089-2.968,12.422,3.958,24.4s15.5,17.7,19.128,15.61c1.869-1.1,2.528-4.177,1.979-8.575a45.6,45.6,0,0,0-5.936-15.83C30.655,11.312,22.08,5.6,18.452,7.684Z" transform="translate(-3.233 0)" fill="#80deea"/>
    <circle id="Elipse_13" data-name="Elipse 13" cx="4.397" cy="4.397" r="4.397" transform="translate(22.365 23.294)" fill="#80deea"/>
  </g>
</svg>
