<svg xmlns="http://www.w3.org/2000/svg" width="68" height="68" viewBox="0 0 68 68">
  <g id="Sass" transform="translate(-26.366 -26)">
    <circle id="Elipse_11" data-name="Elipse 11" cx="34" cy="34" r="34" transform="translate(26.366 26)" fill="#f1dbe6"/>
    <path id="sass-1" d="M46.513,23.3a11.135,11.135,0,0,0-4.9,1.14,10.076,10.076,0,0,1-1.1-2.534,7.008,7.008,0,0,1-.1-2.133,17.089,17.089,0,0,1,.644-2.3c-.011-.1-.116-.56-1.2-.57s-2.027.211-2.133.5a12.125,12.125,0,0,0-.454,1.615c-.19.992-2.175,4.508-3.3,6.356a6.484,6.484,0,0,1-.75-1.858,7.007,7.007,0,0,1-.095-2.133,17.1,17.1,0,0,1,.644-2.3c-.011-.1-.116-.56-1.2-.57s-2.027.211-2.133.5-.222.961-.454,1.615-2.861,6.525-3.547,8.055c-.348.781-.654,1.4-.876,1.826s-.011.032-.032.074l-.3.56v.011c-.148.264-.306.517-.38.517a3.521,3.521,0,0,1,.021-1.679c.391-2.038,1.341-5.215,1.33-5.332,0-.053.179-.612-.612-.9a.962.962,0,0,0-1.109.19c-.063,0-.116.169-.116.169s.855-3.579-1.636-3.579c-1.563,0-3.716,1.7-4.783,3.252-.676.37-2.112,1.151-3.632,1.985-.581.317-1.182.655-1.753.961l-.116-.127c-3.019-3.22-8.6-5.5-8.372-9.829C4.157,15.2,4.705,11.05,14.8,6.024c8.267-4.117,14.886-2.988,16.037-.475C32.472,9.139,27.3,15.811,18.7,16.772c-3.273.37-4.994-.9-5.427-1.372-.454-.5-.517-.517-.686-.422-.274.148-.106.591,0,.855a5.1,5.1,0,0,0,3.1,2.439c1.573.517,5.416.8,10.061-.992,5.2-2.016,9.269-7.612,8.076-12.289C32.62.228,24.723-1.334,17.258,1.316a37.576,37.576,0,0,0-12.722,7.3C.419,12.454-.235,15.811.039,17.2,1,22.177,7.852,25.418,10.6,27.815c-.137.074-.264.148-.38.211-1.372.676-6.6,3.41-7.908,6.3-1.478,3.273.232,5.627,1.372,5.944a8.437,8.437,0,0,0,9.09-3.685,9.117,9.117,0,0,0,.813-8.393l-.032-.063,1.077-.633c.7-.412,1.383-.792,1.985-1.119a13.145,13.145,0,0,0-.707,3.59,7.485,7.485,0,0,0,1.615,5.215,1.787,1.787,0,0,0,1.3.422c1.161,0,1.689-.961,2.27-2.112.718-1.4,1.351-3.03,1.351-3.03s-.792,4.4,1.372,4.4c.792,0,1.584-1.024,1.943-1.552v.011s.021-.032.063-.106.087-.132.127-.2V33c.317-.549,1.024-1.805,2.08-3.885,1.362-2.682,2.671-6.039,2.671-6.039a19.27,19.27,0,0,0,.517,2.175,20.811,20.811,0,0,0,1.13,2.534c-.317.443-.507.7-.507.7l.011.011c-.253.338-.538.7-.834,1.056a30.683,30.683,0,0,0-2.534,3.178.87.87,0,0,0,.232,1.161,2.113,2.113,0,0,0,1.33.211,5.926,5.926,0,0,0,1.985-.454,6.874,6.874,0,0,0,1.71-.9,3.808,3.808,0,0,0,1.636-3.368A6.772,6.772,0,0,0,34.752,27c.1-.137.19-.275.285-.422a44.566,44.566,0,0,0,2.956-5.12,19.27,19.27,0,0,0,.517,2.175,15.247,15.247,0,0,0,.961,2.175,9.386,9.386,0,0,0-2.882,3.727c-.623,1.795-.137,2.608.781,2.8a2.81,2.81,0,0,0,1.446-.3,6.554,6.554,0,0,0,1.827-.94,4.13,4.13,0,0,0,2.016-3.336,6.4,6.4,0,0,0-.454-1.974,10.285,10.285,0,0,1,5.237-.6c4.7.549,5.627,3.484,5.448,4.709A3.154,3.154,0,0,1,51.4,32.007c-.327.2-.433.275-.4.422.042.222.19.211.475.169a3.655,3.655,0,0,0,2.555-3.262c.127-2.9-2.629-6.071-7.517-6.039ZM10.28,35.511c-1.552,1.7-3.737,2.344-4.666,1.795-1-.581-.612-3.083,1.3-4.888a24.841,24.841,0,0,1,3.663-2.734c.222-.137.56-.338.961-.581a1.126,1.126,0,0,1,.106-.063c.074-.042.158-.1.243-.148A6.734,6.734,0,0,1,10.28,35.511Zm11.349-7.718c-.538,1.32-1.679,4.709-2.365,4.519-.591-.158-.95-2.724-.116-5.258A11.737,11.737,0,0,1,21,23.666c.855-.95,1.784-1.267,2.017-.876C23.287,23.3,21.967,26.97,21.629,27.794Zm9.365,4.476c-.232.116-.443.2-.538.137-.074-.042.095-.2.095-.2s1.172-1.256,1.636-1.837c.264-.338.581-.728.919-1.172v.127c0,1.52-1.457,2.534-2.111,2.945Zm7.221-1.647c-.169-.127-.148-.517.422-1.742a6.528,6.528,0,0,1,1.6-2.069,2.612,2.612,0,0,1,.158.908A2.971,2.971,0,0,1,38.215,30.623Z" transform="translate(33.357 39.711)" fill="#cf649a"/>
  </g>
</svg>
